<svg width="21" height="21" viewBox="0 0 21 21" fill="none" xmlns="http://www.w3.org/2000/svg">
<path d="M17.7692 8.14423C17.7692 8.41346 17.8702 8.64904 18.0721 8.85096C18.274 9.05288 18.5096 9.15385 18.7788 9.15385C19.0481 9.15385 19.2837 9.05288 19.4856 8.85096C20.4615 7.875 21 6.5625 21 5.18269C21 3.80289 20.4615 2.49038 19.4856 1.51442C18.5096 0.538462 17.1971 0 15.8173 0C14.4375 0 13.125 0.538462 12.149 1.51442L1.51442 12.149C0.538462 13.125 0 14.4375 0 15.8173C0 17.1971 0.538462 18.5096 1.51442 19.4856C2.49038 20.4615 3.80289 21 5.18269 21C6.5625 21 7.875 20.4615 8.85096 19.4856L16.0865 12.25C17.1635 11.0385 17.0962 9.1875 15.9519 8.00961C15.3798 7.4375 14.6058 7.10096 13.7644 7.10096C12.9231 7.10096 12.149 7.4375 11.5769 8.00961L5.65385 13.9327C5.45192 14.1346 5.35096 14.3702 5.35096 14.6394C5.35096 14.9087 5.45192 15.1442 5.65385 15.3462C6.02404 15.7163 6.69712 15.7163 7.06731 15.3462L12.9904 9.42308C13.3942 9.01923 14.101 9.01923 14.5385 9.42308C14.976 9.86058 14.976 10.5337 14.5385 10.9712L7.4375 18.0721C6.83173 18.6779 6.02404 19.0144 5.18269 19.0144C4.34135 19.0144 3.53365 18.6779 2.92788 18.0721C2.32212 17.4663 1.98558 16.6587 1.98558 15.8173C1.98558 14.976 2.32212 14.1683 2.92788 13.5625L13.5625 2.92788C14.1683 2.32212 14.976 1.98558 15.8173 1.98558C16.6587 1.98558 17.4663 2.32212 18.0721 2.92788C19.3173 4.17308 19.3173 6.19231 18.0721 7.4375C17.8702 7.60577 17.7692 7.875 17.7692 8.14423Z" fill="#1AB394"/>
</svg>
