<svg width="56" height="56" viewBox="0 0 56 56" fill="none" xmlns="http://www.w3.org/2000/svg">
<path d="M28 0C20.5739 0 13.4522 2.95 8.20082 8.20082C2.95 13.4521 0 20.5738 0 28C0 35.4263 2.95 42.5478 8.20082 47.7992C13.4521 53.05 20.5738 56 28 56C35.4263 56 42.5478 53.05 47.7992 47.7992C53.05 42.5479 56 35.4263 56 28C55.992 20.5766 53.0398 13.459 47.7902 8.20988C42.5411 2.96031 35.4229 0.00804246 28 0ZM53.4923 26.761H45.8406C45.8848 22.695 45.5529 18.634 44.8494 14.6294C50.1617 16.5722 53.1653 20.2099 53.4923 26.761ZM43.3924 26.761H29.2388V12.6074C33.5848 12.5402 37.9251 12.9459 42.1826 13.8167C43.0534 18.0747 43.4596 22.4154 43.3924 26.761ZM29.2388 10.1596V2.50778C35.7901 2.83476 39.4277 5.83781 41.3704 11.1108C37.3643 10.4206 33.3032 10.102 29.2388 10.1596ZM26.7609 10.1596C22.6949 10.1153 18.6339 10.4472 14.6292 11.1507C16.5721 5.83837 20.2098 2.8348 26.7609 2.50778V10.1596ZM26.7609 12.6374V26.7616H12.6073C12.54 22.4156 12.9458 18.0753 13.8166 13.8177C18.0746 12.9469 22.4148 12.5411 26.7604 12.6084L26.7609 12.6374ZM10.1594 26.7616H2.50766C2.83465 20.2103 5.83815 16.5727 11.1506 14.6299C10.4471 18.6347 10.1152 22.6958 10.1594 26.7616ZM10.1594 29.2394C10.1152 33.3054 10.4471 37.3664 11.1506 41.3711C5.83826 39.4282 2.83468 35.7905 2.50766 29.2394H10.1594ZM12.6373 29.2394H26.7615V43.393C22.4155 43.4603 18.0752 43.0546 13.8176 42.1837C12.9468 37.9258 12.541 33.5855 12.6083 29.2399L12.6373 29.2394ZM26.7615 45.8409V53.463C20.2101 53.136 16.5726 50.133 14.6298 44.8599C18.6351 45.5604 22.6962 45.8882 26.7615 45.8409ZM29.2393 45.8409C33.3053 45.8851 37.3663 45.5533 41.371 44.8498C39.4281 50.1621 35.7904 53.1657 29.2393 53.4927V45.8409ZM29.2393 43.363V29.2389H43.3929C43.4602 33.5849 43.0544 37.9252 42.1836 42.1827C37.9256 43.0535 33.5854 43.4593 29.2398 43.392L29.2393 43.363ZM45.8408 29.2389H53.4629C53.1359 35.7902 50.1329 39.4278 44.8598 41.3705C45.5603 37.3653 45.8881 33.3042 45.8408 29.2389ZM49.4089 14.1734C47.7811 13.1371 46.0116 12.3425 44.1558 11.8146C43.6527 9.9628 42.885 8.1938 41.8762 6.56152C44.9032 8.53985 47.4797 11.1336 49.4386 14.1734H49.4089ZM14.1739 6.56152C13.1376 8.18893 12.3429 9.95838 11.8151 11.8146C9.95883 12.3425 8.18938 13.1372 6.56197 14.1734C8.53498 11.1283 11.1287 8.53452 14.1739 6.56152ZM6.56197 41.8759C8.18938 42.9121 9.95883 43.7068 11.8151 44.2347C12.3429 46.0909 13.1376 47.8603 14.1739 49.4878C11.1287 47.5148 8.53498 44.921 6.56197 41.8759ZM41.8763 49.4383C42.9126 47.8108 43.7073 46.0414 44.2351 44.1852C46.0714 43.6684 47.8236 42.8904 49.4387 41.8759C47.4745 44.898 44.8985 47.4741 41.8763 49.4383Z" fill="#1AB394"/>
</svg>
