<svg width="48" height="57" viewBox="0 0 48 57" fill="none" xmlns="http://www.w3.org/2000/svg">
<path fill-rule="evenodd" clip-rule="evenodd" d="M0 1.50016C0 0.671984 0.671979 0 1.50014 0H13.4998C14.3284 0 14.9999 0.671984 14.9999 1.50016V13.4999C14.9999 14.3285 14.3284 15 13.4998 15H1.50014C0.671979 15 0 14.3285 0 13.4999V1.50016ZM3.00029 3.00031V12.0002H12.0001V3.00031H3.00029Z" fill="#1AB394"/>
<path fill-rule="evenodd" clip-rule="evenodd" d="M0 22.4995C0 21.6713 0.671979 20.9999 1.50014 20.9999H13.4998C14.3284 20.9999 14.9999 21.6713 14.9999 22.4995V34.4997C14.9999 35.3279 14.3284 35.9994 13.4998 35.9994H1.50014C0.671979 35.9994 0 35.3279 0 34.4997V22.4995ZM3.00029 23.9997V32.9996H12.0001V23.9997H3.00029Z" fill="#1AB394"/>
<path fill-rule="evenodd" clip-rule="evenodd" d="M0 43.5001C0 42.6715 0.671979 42 1.50014 42H13.4998C14.3284 42 14.9999 42.6715 14.9999 43.5001V55.4998C14.9999 56.328 14.3284 57 13.4998 57H1.50014C0.671979 57 0 56.328 0 55.4998V43.5001ZM3.00029 44.9998V53.9997H12.0001V44.9998H3.00029Z" fill="#1AB394"/>
<path fill-rule="evenodd" clip-rule="evenodd" d="M32.9998 4.49995H21.0002V1.50016H32.9998V4.49995Z" fill="#1AB394"/>
<path fill-rule="evenodd" clip-rule="evenodd" d="M32.9998 25.5003H21.0002V22.5H32.9998V25.5003Z" fill="#1AB394"/>
<path fill-rule="evenodd" clip-rule="evenodd" d="M32.9998 46.4997H21.0002V43.4999H32.9998V46.4997Z" fill="#1AB394"/>
<path fill-rule="evenodd" clip-rule="evenodd" d="M48 13.4996H21.0005V10.4998H48V13.4996Z" fill="#1AB394"/>
<path fill-rule="evenodd" clip-rule="evenodd" d="M48 34.5002H21.0005V31.4999H48V34.5002Z" fill="#1AB394"/>
<path fill-rule="evenodd" clip-rule="evenodd" d="M48 55.4996H21.0005V52.4998H48V55.4996Z" fill="#1AB394"/>
</svg>
