<svg width="63" height="56" viewBox="0 0 63 56" fill="none" xmlns="http://www.w3.org/2000/svg">
<path d="M60.2091 2.81328V41.3222H14.4778V2.81328H60.2091ZM63 0H11.6869V44.1355H63V0Z" fill="#1AB394"/>
<path d="M55.6468 6.01967H50.3622V8.83295H55.6468V6.01967Z" fill="#1AB394"/>
<path d="M24.2086 6.01967H18.9255V8.83295H24.2086V6.01967Z" fill="#1AB394"/>
<path d="M55.6468 35.4188H50.3622V38.2321H55.6468V35.4188Z" fill="#1AB394"/>
<path d="M24.2086 35.4188H18.9255V38.2321H24.2086V35.4188Z" fill="#1AB394"/>
<path d="M37.3133 15.9637C40.6455 15.9637 43.3559 18.6961 43.3559 22.0547C43.3559 25.4136 40.6452 28.1457 37.3133 28.1457C33.9811 28.1457 31.2707 25.4133 31.2707 22.0547C31.2716 18.6969 33.9823 15.9637 37.3133 15.9637ZM37.3133 13.1504C32.4353 13.1504 28.4798 17.1368 28.4798 22.0546C28.4798 26.9717 32.4345 30.9588 37.3133 30.9588C42.1913 30.9588 46.1468 26.9724 46.1468 22.0546C46.1471 17.1375 42.1924 13.1504 37.3133 13.1504Z" fill="#1AB394"/>
<path d="M8.71588 47.3058V5.80211H5.92495V50.1191H57.0743V47.3058H8.71588Z" fill="#1AB394"/>
<path d="M2.79093 53.1867V11.683H0V56H51.1493V53.1867H2.79093Z" fill="#1AB394"/>
</svg>
