<svg width="31" height="31" viewBox="0 0 31 31" fill="none" xmlns="http://www.w3.org/2000/svg">
<path d="M0 0V31H31V0H0ZM28.6716 28.6968H2.32081V2.30025H28.6716V28.6968Z" fill="#1AB394"/>
<path d="M6.40157 6.92225H24.5954V9.08203H6.40157V6.92225Z" fill="#1AB394"/>
<path d="M6.40157 11.624H24.5954V13.9247H6.40157V11.624Z" fill="#1AB394"/>
<path d="M6.40157 16.3955H24.5954V18.6962H6.40157V16.3955Z" fill="#1AB394"/>
<path d="M6.40157 21.1663H14.6261V23.467H6.40157V21.1663Z" fill="#1AB394"/>
<path d="M6.40137 6.92224H24.5952V9.08202H6.40137V6.92224Z" fill="white"/>
<path d="M6.40137 11.624H24.5952V13.9247H6.40137V11.624Z" fill="white"/>
<path d="M6.40137 16.3955H24.5952V18.6962H6.40137V16.3955Z" fill="white"/>
<path d="M6.40137 21.1662H14.6259V23.4669H6.40137V21.1662Z" fill="white"/>
</svg>
