<svg width="40" height="32" viewBox="0 0 40 32" fill="none" xmlns="http://www.w3.org/2000/svg">
<path d="M5.23794 21.327L0.666563 21.327C0.298546 21.327 -3.96024e-07 21.6257 -3.79927e-07 21.9939C-3.63831e-07 22.3622 0.298546 22.6609 0.666563 22.6609L4.21338 22.6609L5.23794 21.327Z" fill="#1AB394"/>
<path d="M28.4716 8.86797L35.1601 16.2282C35.2263 16.2941 36.0003 17.0945 36.0003 18.0111L36.0003 24.0147C36.0003 25.4864 34.8044 26.6832 33.3337 26.6832C32.8343 26.6832 32.3722 26.5369 31.9724 26.2968C31.8295 27.635 30.7082 28.6845 29.3338 28.6845C28.8343 28.6845 28.3723 28.5382 27.9724 28.2981C27.8296 29.6362 26.7082 30.6857 25.3338 30.6857C24.6756 30.6857 24.0445 30.4442 23.5551 30.0053C23.2811 29.7596 23.2571 29.338 23.5032 29.0633C23.749 28.7891 24.1703 28.7657 24.4452 29.0119C24.6891 29.2305 25.0044 29.3514 25.3338 29.3514C26.0691 29.3514 26.667 28.7531 26.667 28.0172L26.667 20.6798C26.667 20.3116 26.9658 20.0125 27.3338 20.0125C27.7018 20.0125 28.0004 20.3116 28.0004 20.6798L28.0004 26.0162C28.0004 26.7522 28.5983 27.3505 29.3338 27.3505C30.069 27.3505 30.6669 26.7522 30.6669 26.0162L30.6669 19.3456C30.6669 19.0848 30.3843 18.6752 30.1937 18.4809L25.5291 13.8134C25.2685 13.5532 25.2685 13.131 25.5291 12.8703C25.7897 12.6101 26.211 12.6101 26.4716 12.8703L31.1384 17.5397C31.2263 17.6285 32.0003 18.4289 32.0003 19.3456L32.0003 24.015C32.0003 24.7509 32.5982 25.3492 33.3337 25.3492C34.0689 25.3492 34.6668 24.7509 34.6668 24.015L34.6668 18.0113C34.6668 17.7505 34.3842 17.341 34.1936 17.1469L27.507 9.78813C26.4457 8.72748 25.0378 7.49544 24.6164 7.33798L25.5224 6.32383C26.0826 6.66813 26.9878 7.38313 28.4716 8.86797Z" fill="#1AB394"/>
<path d="M8.08235 5.6377C7.23636 6.23796 6.62423 6.67098 6.00038 6.67098L0.667011 6.67098C0.298994 6.67098 0.000447218 6.3728 0.000447202 6.00372C0.000447186 5.63547 0.298994 5.33674 0.667011 5.33674L6.00038 5.33674C6.20029 5.33674 6.81561 4.901 7.31063 4.55045L7.31172 4.54969C9.00841 3.34695 11.8482 1.33429 16.6666 1.33429C17.0346 1.33429 17.3335 1.63302 17.3335 2.00127C17.3335 2.37036 17.0346 2.66853 16.6666 2.66853C12.2722 2.66853 9.75062 4.45562 8.08235 5.6377Z" fill="#1AB394"/>
<path fill-rule="evenodd" clip-rule="evenodd" d="M26.0826 23.867C26.0826 23.1539 25.8052 22.4837 25.3013 21.98C24.9567 21.6344 24.5374 21.4149 24.0968 21.2988L25.4967 19.8973C26.0008 19.3936 26.2781 18.7233 26.2781 18.0108C26.2781 17.2977 26.0008 16.6279 25.4967 16.1242C24.9933 15.62 24.3234 15.3425 23.6113 15.3425C22.8987 15.3425 22.2293 15.62 21.7255 16.1242L20.5221 17.3284C20.4035 16.8789 20.178 16.4627 19.8402 16.1242C19.336 15.62 18.6669 15.3425 17.954 15.3425C17.2423 15.3425 16.5721 15.62 16.0687 16.1242L14.3935 17.8008C14.2749 17.3504 14.0495 16.9342 13.7116 16.5961C13.2082 16.0916 12.5389 15.8141 11.8263 15.8141C11.1134 15.8141 10.444 16.0916 9.94092 16.5961L5.21219 21.3269L4.18763 22.6609C3.81152 23.6274 4.00097 24.8028 4.75487 25.558C5.58357 26.3858 6.82013 26.5433 7.81619 26.0525C7.90742 26.5701 8.14347 27.0623 8.52684 27.4453C9.34883 28.267 10.5734 28.4286 11.5662 27.9509C11.6655 28.4705 11.9155 28.9496 12.2974 29.3318C13.1194 30.1534 14.3446 30.3157 15.3373 29.8374C15.4367 30.3575 15.6867 30.8361 16.0686 31.2182C16.572 31.7225 17.2422 32 17.9539 32C18.6668 32 19.3359 31.7225 19.8401 31.2182L25.3012 25.7534C25.8051 25.2497 26.0826 24.5795 26.0826 23.867ZM17.0119 30.275C17.2639 30.5271 17.5984 30.6659 17.9544 30.6659C18.3113 30.6659 18.6458 30.5271 18.8978 30.275L24.3592 24.8105C24.8631 24.306 24.8625 23.4268 24.3592 22.9232C23.8397 22.4036 22.9957 22.4036 22.4759 22.9212L17.0119 28.3886C16.7605 28.6401 16.6219 28.9748 16.6219 29.3319C16.6219 29.6881 16.7605 30.0229 17.0119 30.275ZM12.8507 27.4446C12.8507 27.8017 12.9894 28.1365 13.2405 28.3886C13.7605 28.9081 14.6065 28.9082 15.1266 28.388L21.5305 21.9801L21.5325 21.9787L24.5545 18.9543C25.0579 18.4506 25.0579 17.5714 24.5545 17.0678C24.3026 16.8157 23.9678 16.6769 23.6117 16.6769C23.2552 16.6769 22.9204 16.8157 22.6692 17.0678L13.2394 26.5029C12.9885 26.7542 12.8507 27.0892 12.8507 27.4446ZM9.07926 25.5581C9.07926 25.9144 9.21793 26.25 9.46988 26.5021C9.98944 27.0216 10.8354 27.0215 11.3552 26.502L12.2966 25.5594L12.298 25.558L18.8978 18.9541C19.4011 18.4504 19.4011 17.5712 18.8978 17.0676C18.6458 16.8155 18.3113 16.6767 17.9544 16.6767C17.5984 16.6767 17.2639 16.8155 17.0119 17.0676L9.46988 24.6151C9.21793 24.8671 9.07926 25.2019 9.07926 25.5581ZM5.30803 23.6716C5.30803 24.0278 5.4467 24.3629 5.69781 24.615C6.21788 25.1345 7.06386 25.1345 7.58394 24.615L12.7692 19.4257C13.2725 18.922 13.2725 18.0434 12.7692 17.5392C12.5172 17.2871 12.1824 17.1483 11.8267 17.1483C11.4707 17.1483 11.1358 17.2871 10.8839 17.5392L5.69781 22.7277C5.4467 22.9798 5.30803 23.3148 5.30803 23.6716Z" fill="white"/>
<path fill-rule="evenodd" clip-rule="evenodd" d="M37.9743 21.328L39.3077 21.328C39.6757 21.328 39.9743 21.6267 39.9743 21.995C39.9743 22.3632 39.6757 22.662 39.3077 22.662L37.9743 22.662C37.6063 22.662 37.3077 22.3632 37.3077 21.995C37.3077 21.6267 37.6063 21.328 37.9743 21.328Z" fill="white"/>
<path d="M35.2843 3.92161C36.3898 4.56319 37.6431 5.29045 37.9816 5.31783L39.3077 5.31783C39.6757 5.31783 39.9742 5.61656 39.9742 5.98481C39.9742 6.35306 39.6757 6.65179 39.3077 6.65179L37.9743 6.65179C37.3576 6.65179 36.4489 6.14031 34.615 5.07546L34.6137 5.07471C32.047 3.58522 28.1687 1.3346 25.3079 1.3346C21.488 1.3346 19.6786 3.31517 18.5293 5.0403C17.5097 6.5709 14.5972 11.5966 14.5514 11.6755C14.5701 11.9572 15.8 12.675 16.6412 12.675C17.2827 12.675 17.7252 12.1978 18.5168 11.2841L18.5293 11.2696C18.8133 10.9415 19.1341 10.5709 19.5033 10.2019L22.8365 6.86671C23.5898 6.11289 23.7567 6.00403 24.6411 6.00403C24.7536 6.00403 24.9764 6.00403 25.4967 6.3238L24.5907 7.33795C24.4512 7.33795 24.3091 7.33934 24.272 7.35135C24.2102 7.37941 24.0067 7.58255 23.7891 7.79975L23.7793 7.8095L20.4459 11.145C20.1061 11.4859 19.81 11.8268 19.5246 12.157C18.7007 13.1093 17.9219 14.0086 16.6413 14.0086C15.7214 14.0086 14.0688 13.4103 13.4667 12.4351C13.1869 11.9828 13.1562 11.4878 13.3783 11.0422C13.5189 10.7968 16.3749 5.8691 17.4201 4.30007C18.65 2.45436 20.8054 1.17276e-06 25.3078 9.75954e-07C28.5262 8.35276e-07 32.4275 2.26387 35.2781 3.918L35.2843 3.92161Z" fill="white"/>
</svg>
