<svg width="32" height="31" viewBox="0 0 32 31" fill="none" xmlns="http://www.w3.org/2000/svg">
<path fill-rule="evenodd" clip-rule="evenodd" d="M22.5893 23.792V21.6667L22.589 19.9701V17.8448H17.525V19.9701L17.5257 21.6543V23.7795L22.5893 23.792ZM24.9668 21.6667L32 14.6497V5.05221H13.3632V1.68413H18.6369V5.05221H20.325V0H11.6755V5.05228H0V14.6498L1.68809 16.334L3.37581 18.0893L7.03302 21.6679L7.73653 19.9699L1.68772 13.935V6.73783H30.3118V13.9493L24.263 19.9701L24.9668 21.6667ZM9.41048 21.6679V23.7932H14.4745V17.8589H9.41048V19.9699V21.6679ZM1.68809 31V18.6498L3.37581 20.334V29.3164L28.6241 29.3162V20.334L30.3122 18.6498V31H1.68809ZM11.0985 19.5414H12.7866V22.1076L11.0985 22.1078V19.5414ZM19.1855 19.5414H20.8736V22.1076H19.1855V19.5414Z" fill="white"/>
<path fill-rule="evenodd" clip-rule="evenodd" d="M24.9668 21.6667L32 14.6497V5.05221H13.3632V1.68413H18.6369V5.05221H20.325V0H11.6755V5.05228H0V14.6498L1.68809 16.334L3.37581 18.0893L7.03302 21.6679L7.73653 19.9699L1.68772 13.935V6.73783H30.3118V13.9493L24.263 19.9701L24.9668 21.6667Z" fill="#1AB394"/>
</svg>
