<svg width="73" height="36" viewBox="0 0 73 36" fill="none" xmlns="http://www.w3.org/2000/svg">
<path d="M38.1121 30.7427C36.7106 30.652 35.0946 30.4134 33.82 30.0549C33.5812 29.9876 32.5927 29.6347 32.3412 29.5227C27.9038 27.5263 24.8125 23.1683 24.8125 18.1123C24.8125 11.1775 30.6214 5.5289 37.766 5.5289C44.8472 5.5289 50.6169 11.0812 50.7161 17.9375H55.3957C55.2965 8.57616 47.4287 0.989382 37.766 0.989382C28.0457 0.989382 20.134 8.66915 20.134 18.1123C20.134 24.6224 23.9036 30.2845 29.4229 33.1772C30.4195 33.6892 31.8498 34.2168 32.3355 34.3613C33.9088 34.8162 35.8397 35.1187 37.5584 35.2453C38.142 35.2878 40.1802 35.3103 40.7743 35.3125H73.0001V30.7853H40.8285C40.4006 30.7853 38.5308 30.7696 38.1121 30.7427ZM40.8285 23.6343C40.4882 23.6343 38.7084 23.6231 38.3797 23.5962C37.8225 23.5503 37.0151 23.4696 36.496 23.3542C35.9101 23.2019 35.3599 23.0002 35.1119 22.868C33.3736 21.955 32.189 20.1692 32.189 18.1123C32.189 15.1199 34.6839 12.6933 37.766 12.6933C40.7835 12.6933 43.2369 15.0247 43.335 17.9375H47.8312C47.7366 12.616 43.2704 8.32745 37.766 8.32745C32.2005 8.32745 27.6893 12.7079 27.6893 18.1123C27.6893 21.9236 29.9385 25.2151 33.2144 26.8272C33.7185 27.114 34.6666 27.4143 34.9365 27.4826C35.8616 27.719 37.1039 27.8803 38.1121 27.952C38.4846 27.9823 40.3094 27.9957 40.6947 27.998V28.0047H72.9989V23.6343H40.8285ZM17.2503 35.2957H12.5395V5.53898H5.65558V0.962494H17.2503V35.2957ZM0.483398 7.82555V12.2261H5.65558V35.2957H10.1818V7.82555H0.483398Z" fill="#1AB394"/>
</svg>
