<svg width="89" height="59" viewBox="0 0 89 59" fill="none" xmlns="http://www.w3.org/2000/svg">
<path d="M20.6588 0C9.26469 0 0 9.55472 0 21.3056C0 31.7453 7.26237 40.5461 17.115 42.2997C17.6554 49.8058 11.6484 56.1319 11.5848 56.1975C11.0763 56.7383 10.9651 57.5414 11.3306 58.1806C11.6325 58.705 12.1569 59 12.7131 59C12.8403 59 12.9833 58.9836 13.1263 58.9344C41.9692 50.6744 41.3653 22.7969 41.3177 21.2728C41.2859 9.53833 32.0371 0 20.6588 0Z" fill="white"/>
<path d="M88.9919 21.2728C88.9601 9.53833 79.7113 0 68.333 0C56.9389 0 47.6742 9.55472 47.6742 21.3056C47.6742 31.7453 54.9366 40.5461 64.7893 42.2997C65.3296 49.8058 59.3226 56.1319 59.2591 56.1975C58.7505 56.7383 58.6393 57.5414 59.0048 58.1806C59.3067 58.705 59.8311 59 60.3873 59C60.5145 59 60.6575 58.9836 60.8005 58.9344C89.6434 50.6744 89.0396 22.7969 88.9919 21.2728Z" fill="white"/>
</svg>
