<svg width="32" height="26" viewBox="0 0 32 26" fill="none" xmlns="http://www.w3.org/2000/svg">
<path d="M2.14127 17.0334V4.95535C2.14127 3.88471 3.04462 2.98137 4.11525 2.98137H7.92939L7.42753 5.18955C7.39407 5.39029 7.46098 5.59104 7.62827 5.69141L10.0372 7.29736C10.2379 7.43119 10.3049 7.73231 10.171 7.93305L8.39779 10.6431C8.26396 10.8438 8.29742 11.078 8.4647 11.2453L10.5725 13.2528C10.6729 13.3531 10.7398 13.5204 10.7063 13.6877L10.2379 16.0297C10.1376 16.5316 10.7733 16.7992 11.0744 16.3978L13.0818 13.3866C13.2156 13.2193 13.1822 12.9851 13.0484 12.8178L11.6431 11.2788C11.4759 11.1115 11.4759 10.8438 11.6431 10.6431L14.2863 7.66539C14.487 7.46465 14.4536 7.13007 14.2194 6.99624L12.0112 5.45721C11.8104 5.32338 11.777 5.08918 11.8439 4.85498L12.7807 2.98137H17.7324C18.803 2.98137 19.7064 3.88471 19.7064 4.95535V7.76576C20.3421 7.36427 21.0781 7.09662 21.8476 7.0297V4.92189C21.8476 2.64679 20.0075 0.806641 17.7324 0.806641H4.11525C1.84015 0.840098 0 2.68025 0 4.95535V17.0334C0 19.3085 1.84015 21.1487 4.11525 21.1487H11.1413C11.1747 21.0818 11.2082 21.0149 11.2417 20.9479L12.4127 19.0074H4.11525C3.04462 19.0074 2.14127 18.1041 2.14127 17.0334Z" fill="black"/>
<path d="M31.4164 22.1524L24.5242 10.6096C24.0558 9.84011 23.2529 9.3717 22.3495 9.3717C21.4462 9.3717 20.6432 9.84011 20.1748 10.6096L13.2826 22.1524C12.8142 22.9554 12.7807 23.8922 13.2491 24.6952C13.7175 25.4981 14.5205 26 15.4573 26H29.2417C30.1785 26 30.9815 25.5316 31.4499 24.6952C31.9183 23.8922 31.8848 22.9554 31.4164 22.1524ZM22.3495 23.7249C21.6804 23.7249 21.145 23.1896 21.145 22.5204C21.145 21.8513 21.6804 21.316 22.3495 21.316C23.0187 21.316 23.554 21.8513 23.554 22.5204C23.554 23.1896 23.0187 23.7249 22.3495 23.7249ZM23.6543 14.4907L23.2194 19.5093C23.1859 19.9777 22.751 20.3457 22.2826 20.3122C21.8476 20.2788 21.5131 19.9442 21.4796 19.5093L21.0447 14.4907C20.9778 13.7881 21.5131 13.1524 22.2157 13.0855C22.9183 13.0186 23.554 13.5539 23.6209 14.2899C23.6543 14.3568 23.6543 14.4238 23.6543 14.4907Z" fill="white"/>
</svg>
