<svg width="28" height="22" viewBox="0 0 28 22" fill="none" xmlns="http://www.w3.org/2000/svg">
<path fill-rule="evenodd" clip-rule="evenodd" d="M27.1539 0H14.9613H0.846056C0.378825 0 0 0.373586 0 0.834355V9.43905C0 9.89982 0.378825 10.2734 0.846056 10.2734H7.37821V11.7266H0.846056C0.378825 11.7266 0 12.1002 0 12.561V21.1656C0 21.6264 0.378825 22 0.846056 22H27.1539C27.6212 22 28 21.6264 28 21.1656V12.561C28 12.1002 27.6212 11.7266 27.1539 11.7266H20.6218V10.2734H27.1539C27.6212 10.2734 28 9.89982 28 9.43905V0.834355C28 0.373586 27.6212 0 27.1539 0ZM1.69211 20.3313H26.3079V13.3953H1.69211V20.3313ZM9.07032 11.7266H18.9297V10.2734H9.07032V11.7266ZM1.69211 8.60469H26.3079V1.66871H1.69211V8.60469Z" fill="black"/>
<path d="M10.308 4.30253H5.08006C4.61283 4.30253 4.23401 4.67611 4.23401 5.13688C4.23401 5.59765 4.61283 5.97124 5.08006 5.97124H10.308C10.7752 5.97124 11.1541 5.59765 11.1541 5.13688C11.1541 4.67611 10.7752 4.30253 10.308 4.30253Z" fill="white"/>
<path d="M10.308 16.0291H5.08006C4.61283 16.0291 4.23401 16.4027 4.23401 16.8635C4.23401 17.3242 4.61283 17.6978 5.08006 17.6978H10.308C10.7752 17.6978 11.1541 17.3242 11.1541 16.8635C11.1541 16.4027 10.7752 16.0291 10.308 16.0291Z" fill="white"/>
<path d="M17.5466 5.97246C17.7664 5.97246 17.9866 5.88079 18.1473 5.73046C18.308 5.57198 18.3926 5.35525 18.3926 5.1381C18.3926 5.02974 18.3757 4.92137 18.3332 4.82115C18.291 4.71278 18.2233 4.62111 18.1473 4.54574C18.0708 4.47078 17.9779 4.41252 17.8763 4.36241C17.5635 4.23694 17.1826 4.3123 16.9542 4.54574C16.8695 4.62111 16.8104 4.71278 16.7679 4.82115C16.7257 4.92137 16.7005 5.02974 16.7005 5.1381C16.7005 5.35525 16.7935 5.57198 16.9542 5.73046C17.1066 5.88079 17.3264 5.97246 17.5466 5.97246Z" fill="white"/>
<path d="M22.3437 5.97246C22.4535 5.97246 22.5634 5.94761 22.6651 5.90564C22.7667 5.86409 22.8596 5.80583 22.9443 5.73046C23.0964 5.57198 23.1897 5.35525 23.1897 5.1381C23.1897 4.92137 23.0964 4.70422 22.9443 4.54574C22.8596 4.47078 22.7667 4.41252 22.6651 4.37056C22.3519 4.23693 21.9797 4.3123 21.743 4.54574C21.5906 4.70422 21.4976 4.92137 21.4976 5.1381C21.4976 5.35525 21.5906 5.57198 21.743 5.73046C21.9037 5.88079 22.1235 5.97246 22.3437 5.97246Z" fill="white"/>
<path d="M17.8763 16.0935C17.5635 15.968 17.1826 16.0434 16.9542 16.2768C16.7935 16.4272 16.7005 16.6439 16.7005 16.861C16.7005 16.9694 16.7257 17.0778 16.7679 17.1861C16.8104 17.2864 16.8695 17.378 16.9542 17.4534C17.1066 17.6119 17.3264 17.6954 17.5466 17.6954C17.7664 17.6954 17.9866 17.6119 18.1473 17.4534C18.308 17.2949 18.3926 17.0778 18.3926 16.861C18.3926 16.6439 18.308 16.4272 18.1473 16.2768C18.0708 16.1933 17.9779 16.135 17.8763 16.0935Z" fill="white"/>
<path d="M22.3437 17.6954C22.4535 17.6954 22.5634 17.6787 22.6651 17.6367C22.7667 17.5952 22.8596 17.5284 22.9443 17.4534C23.0964 17.2949 23.1897 17.0863 23.1897 16.861C23.1897 16.7523 23.1641 16.6439 23.122 16.5437C23.0798 16.4439 23.0203 16.3518 22.9443 16.2768C22.8596 16.1933 22.7667 16.135 22.6651 16.0935C22.3519 15.968 21.9797 16.0434 21.743 16.2768C21.6666 16.3518 21.6075 16.4439 21.5654 16.5437C21.5228 16.6439 21.4976 16.7523 21.4976 16.861C21.4976 17.0863 21.5906 17.2949 21.743 17.4534C21.9037 17.6119 22.1235 17.6954 22.3437 17.6954Z" fill="white"/>
<path fill-rule="evenodd" clip-rule="evenodd" d="M10.308 4.30253H5.08006C4.61283 4.30253 4.23401 4.67611 4.23401 5.13688C4.23401 5.59765 4.61283 5.97124 5.08006 5.97124H10.308C10.7752 5.97124 11.1541 5.59765 11.1541 5.13688C11.1541 4.67611 10.7752 4.30253 10.308 4.30253ZM17.5466 5.97246C17.7664 5.97246 17.9866 5.88079 18.1473 5.73046C18.308 5.57198 18.3926 5.35525 18.3926 5.1381C18.3926 5.02974 18.3757 4.92137 18.3332 4.82115C18.291 4.71278 18.2233 4.62111 18.1473 4.54574C18.0708 4.47078 17.9779 4.41252 17.8763 4.36241C17.5635 4.23694 17.1826 4.3123 16.9542 4.54574C16.8695 4.62111 16.8104 4.71278 16.7679 4.82115C16.7257 4.92137 16.7005 5.02974 16.7005 5.1381C16.7005 5.35525 16.7935 5.57198 16.9542 5.73046C17.1066 5.88079 17.3264 5.97246 17.5466 5.97246ZM22.3437 5.97246C22.4535 5.97246 22.5634 5.94761 22.6651 5.90564C22.7667 5.86409 22.8596 5.80583 22.9443 5.73046C23.0964 5.57198 23.1897 5.35525 23.1897 5.1381C23.1897 4.92137 23.0964 4.70422 22.9443 4.54574C22.8596 4.47078 22.7667 4.41252 22.6651 4.37056C22.3519 4.23693 21.9797 4.3123 21.743 4.54574C21.5906 4.70422 21.4976 4.92137 21.4976 5.1381C21.4976 5.35525 21.5906 5.57198 21.743 5.73046C21.9037 5.88079 22.1235 5.97246 22.3437 5.97246ZM10.308 16.0291H5.08006C4.61283 16.0291 4.23401 16.4027 4.23401 16.8635C4.23401 17.3242 4.61283 17.6978 5.08006 17.6978H10.308C10.7752 17.6978 11.1541 17.3242 11.1541 16.8635C11.1541 16.4027 10.7752 16.0291 10.308 16.0291ZM17.8763 16.0935C17.5635 15.968 17.1826 16.0434 16.9542 16.2768C16.7935 16.4272 16.7005 16.6439 16.7005 16.861C16.7005 16.9694 16.7257 17.0778 16.7679 17.1861C16.8104 17.2864 16.8695 17.378 16.9542 17.4534C17.1066 17.6119 17.3264 17.6954 17.5466 17.6954C17.7664 17.6954 17.9866 17.6119 18.1473 17.4534C18.308 17.2949 18.3926 17.0778 18.3926 16.861C18.3926 16.6439 18.308 16.4272 18.1473 16.2768C18.0708 16.1933 17.9779 16.135 17.8763 16.0935ZM22.3437 17.6954C22.4535 17.6954 22.5634 17.6787 22.6651 17.6367C22.7667 17.5952 22.8596 17.5284 22.9443 17.4534C23.0964 17.2949 23.1897 17.0863 23.1897 16.861C23.1897 16.7523 23.1641 16.6439 23.122 16.5437C23.0798 16.4439 23.0203 16.3518 22.9443 16.2768C22.8596 16.1933 22.7667 16.135 22.6651 16.0935C22.3519 15.968 21.9797 16.0434 21.743 16.2768C21.6666 16.3518 21.6075 16.4439 21.5654 16.5437C21.5228 16.6439 21.4976 16.7523 21.4976 16.861C21.4976 17.0863 21.5906 17.2949 21.743 17.4534C21.9037 17.6119 22.1235 17.6954 22.3437 17.6954Z" fill="white"/>
</svg>
