<svg width="32" height="21" viewBox="0 0 32 21" fill="none" xmlns="http://www.w3.org/2000/svg">
<path d="M25.1252 20.0422C24.8622 20.0422 24.6102 19.9382 24.4232 19.7542L18.2982 13.7122C17.9042 13.3242 17.9012 12.6912 18.2882 12.2982C18.6762 11.9042 19.3102 11.9012 19.7022 12.2882L25.1102 17.6232L30.2832 12.3032C30.6692 11.9082 31.3012 11.8982 31.6972 12.2832C32.0932 12.6682 32.1012 13.3012 31.7172 13.6972L25.8422 19.7392C25.6562 19.9292 25.4032 20.0392 25.1362 20.0422C25.1322 20.0422 25.1292 20.0422 25.1252 20.0422Z" fill="white"/>
<path d="M25.0002 20.0002C24.4472 20.0002 24.0002 19.5532 24.0002 19.0002V2.50424C24.0002 2.22624 23.7742 2.00024 23.4962 2.00024H16.0002C15.4482 2.00024 15.0002 1.55224 15.0002 1.00024C15.0002 0.448244 15.4482 0.000244141 16.0002 0.000244141H23.4962C24.8772 0.000244141 26.0002 1.12324 26.0002 2.50424V19.0002C26.0002 19.5532 25.5532 20.0002 25.0002 20.0002Z" fill="white"/>
<path d="M13.0002 8.00025C12.7443 8.00025 12.4882 7.90225 12.2933 7.70725L7.00025 2.41425L1.70725 7.70725C1.31625 8.09825 0.68425 8.09825 0.29325 7.70725C-0.09775 7.31625 -0.09775 6.68425 0.29325 6.29325L6.29325 0.29325C6.68425 -0.09775 7.31625 -0.09775 7.70725 0.29325L13.7072 6.29325C14.0982 6.68425 14.0982 7.31625 13.7072 7.70725C13.5122 7.90225 13.2562 8.00025 13.0002 8.00025Z" fill="black"/>
<path d="M16.0002 20.0002H8.50425C7.12325 20.0002 6.00025 18.8773 6.00025 17.4963V1.00025C6.00025 0.44825 6.44825 0.000249892 7.00025 0.000249892C7.55225 0.000249892 8.00025 0.44825 8.00025 1.00025V17.4963C8.00025 17.7743 8.22625 18.0002 8.50425 18.0002H16.0002C16.5522 18.0002 17.0002 18.4473 17.0002 19.0002C17.0002 19.5532 16.5522 20.0002 16.0002 20.0002Z" fill="black"/>
</svg>
