<svg width="27" height="22" viewBox="0 0 27 22" fill="none" xmlns="http://www.w3.org/2000/svg">
<path d="M1.12101 13.4643C-0.37367 13.4643 -0.37367 11.2024 1.12101 11.2024C2.35924 11.2024 3.36303 10.1897 3.36303 8.94048V3.95833C3.36303 1.77221 5.11965 0 7.28656 0H7.84706C8.46618 0 8.96807 0.506345 8.96807 1.13095C8.96807 1.75556 8.46618 2.2619 7.84706 2.2619H7.28656C6.35788 2.2619 5.60504 3.02142 5.60504 3.95833V8.94048C5.60504 10.2916 5.01791 11.5044 4.087 12.3333C5.01791 13.1623 5.60504 14.3751 5.60504 15.7262V18.0417C5.60504 18.9786 6.35788 19.7381 7.28656 19.7381H7.84706C8.46618 19.7381 8.96807 20.2444 8.96807 20.869C8.96807 21.4937 8.46618 22 7.84706 22H7.28656C5.11965 22 3.36303 20.2278 3.36303 18.0417V15.7262C3.36303 14.477 2.35924 13.4643 1.12101 13.4643ZM25.879 13.4643C24.6408 13.4643 23.637 14.477 23.637 15.7262V18.0417C23.637 20.2278 21.8804 22 19.7134 22H19.1529C18.5338 22 18.0319 21.4937 18.0319 20.869C18.0319 20.2444 18.5338 19.7381 19.1529 19.7381H19.7134C20.6421 19.7381 21.395 18.9786 21.395 18.0417V15.7262C21.395 14.3751 21.9821 13.1623 22.913 12.3333C21.9821 11.5044 21.395 10.2916 21.395 8.94048V3.95833C21.395 3.02142 20.6421 2.2619 19.7134 2.2619H19.1529C18.5338 2.2619 18.0319 1.75556 18.0319 1.13095C18.0319 0.506345 18.5338 0 19.1529 0H19.7134C21.8804 0 23.637 1.77221 23.637 3.95833V8.94048C23.637 10.1897 24.6408 11.2024 25.879 11.2024C27.3737 11.2024 27.3737 13.4643 25.879 13.4643Z" fill="black"/>
<path d="M10.0891 6.91669C9.46997 6.91669 8.96808 6.41034 8.96808 5.78574C8.96808 5.16113 9.46997 4.65479 10.0891 4.65479H13.6219C14.241 4.65479 14.7429 5.16113 14.7429 5.78574C14.7429 6.41034 14.241 6.91669 13.6219 6.91669H10.0891ZM10.0891 17.3453C9.46997 17.3453 8.96808 16.8389 8.96808 16.2143C8.96808 15.5897 9.46997 15.0834 10.0891 15.0834H13.6219C14.241 15.0834 14.7429 15.5897 14.7429 16.2143C14.7429 16.8389 14.241 17.3453 13.6219 17.3453H10.0891ZM13.6219 12.3036C13.0027 12.3036 12.5009 11.7972 12.5009 11.1726C12.5009 10.548 13.0027 10.0417 13.6219 10.0417H16.9109C17.5301 10.0417 18.0319 10.548 18.0319 11.1726C18.0319 11.7972 17.5301 12.3036 16.9109 12.3036H13.6219Z" fill="white"/>
</svg>
