<svg width="14" height="14" viewBox="0 0 14 14" fill="none" xmlns="http://www.w3.org/2000/svg">
<path fill-rule="evenodd" clip-rule="evenodd" d="M14 13.9817V14L11.5966 14C11.0679 13.3326 10.3761 12.7897 9.57743 12.4155C8.77873 12.0413 7.8957 11.8462 7 11.8462C6.1043 11.8462 5.22126 12.0413 4.42257 12.4155C3.62387 12.7897 2.9321 13.3326 2.4034 14L0 14V13.9806C0.56126 12.697 1.53034 11.6003 2.77981 10.8348C4.02927 10.0694 5.50058 9.67108 7 9.69231C8.49956 9.67116 9.97085 10.0696 11.2203 10.8353C12.4698 11.6009 13.4389 12.6979 14 13.9817ZM7.01168 0H7C5.76283 0.00142751 4.57693 0.456274 3.70294 1.26455C2.82895 2.07283 2.3384 3.16837 2.33917 4.31038C2.33995 5.45238 2.83199 6.54737 3.70707 7.35464C4.58216 8.16191 5.76867 8.61538 7.00584 8.61538C8.24301 8.61538 9.42952 8.16191 10.3046 7.35464C11.1797 6.54737 11.6717 5.45238 11.6725 4.31038C11.6733 3.16837 11.1827 2.07283 10.3087 1.26455C9.43474 0.456274 8.24885 0.00142751 7.01168 0ZM9.32166 4.30769C9.32142 4.73151 9.18512 5.14574 8.92987 5.49802C8.67462 5.85031 8.31192 6.12483 7.88767 6.28687C7.46343 6.44891 6.99669 6.49119 6.54641 6.40838C6.09612 6.32557 5.68252 6.12138 5.35795 5.82162C5.03338 5.52186 4.81241 5.14 4.72292 4.72431C4.63343 4.30863 4.67947 3.87778 4.85522 3.48625C5.03098 3.09471 5.32852 2.76008 5.71029 2.52464C6.09206 2.2892 6.54087 2.16354 7 2.16354C7.30498 2.16354 7.60692 2.21901 7.88867 2.32677C8.17042 2.43454 8.42645 2.59249 8.64205 2.79161C8.85765 2.99073 9.02874 3.22711 9.14534 3.48724C9.26195 3.74737 9.32181 4.02617 9.32166 4.30769Z" fill="white"/>
</svg>
